<?xml version="1.0" encoding="UTF-8"?>
<svg width="128px" height="64px" viewBox="0 0 128 64" version="1.1" xmlns="http://www.w3.org/2000/svg" xmlns:xlink="http://www.w3.org/1999/xlink">
    <title>Group 243</title>
    <defs>
        <filter x="-8.2%" y="-18.5%" width="116.3%" height="137.0%" filterUnits="objectBoundingBox" id="filter-1">
            <feOffset dx="-1" dy="2" in="SourceAlpha" result="shadowOffsetOuter1"></feOffset>
            <feGaussianBlur stdDeviation="1.25" in="shadowOffsetOuter1" result="shadowBlurOuter1"></feGaussianBlur>
            <feColorMatrix values="0 0 0 0 1   0 0 0 0 1   0 0 0 0 1  0 0 0 0.582815317 0" type="matrix" in="shadowBlurOuter1" result="shadowMatrixOuter1"></feColorMatrix>
            <feMerge>
                <feMergeNode in="shadowMatrixOuter1"></feMergeNode>
                <feMergeNode in="SourceGraphic"></feMergeNode>
            </feMerge>
        </filter>
    </defs>
    <g id="Page-1" stroke="none" stroke-width="1" fill="none" fill-rule="evenodd" opacity="0.799004691">
        <g id="Artboard" transform="translate(-506.000000, -414.000000)" fill="#FF0000">
            <g id="Group-243" filter="url(#filter-1)" transform="translate(513.000000, 421.000000)">
                <polygon id="Fill-1" points="81.164052 11.8818681 80.7692308 12.293956 102.900689 12.293956 103.296703 11.8818681"></polygon>
                <polygon id="Fill-2" points="81.7235203 11.4697802 81.5934066 11.6071429 103.441315 11.6071429 103.571429 11.4697802"></polygon>
                <polygon id="Fill-3" points="77.8773629 15.5909341 77.7472527 15.7277473 99.5951646 15.7277473 99.7252747 15.5909341"></polygon>
                <polygon id="Fill-4" points="86.2509335 6.18159341 85.989011 6.45576923 107.979836 6.45576923 108.241758 6.18159341"></polygon>
                <polygon id="Fill-5" points="85.8443994 6.79945055 85.7142857 6.93681319 107.562194 6.93681319 107.692308 6.79945055"></polygon>
                <polygon id="Fill-6" points="71.8334104 22.4587912 71.7032967 22.5961538 93.551205 22.5961538 93.6813187 22.4587912"></polygon>
                <polygon id="Fill-7" points="71.2839598 23.0082418 71.1538462 23.1456044 93.0017545 23.1456044 93.1318681 23.0082418"></polygon>
                <polygon id="Fill-8" points="70.4497663 23.9697802 70.0549451 24.3818681 92.187 24.3818681 92.5824176 23.9697802"></polygon>
                <polygon id="Fill-9" points="71.0086493 23.5576923 70.8791209 23.6950549 92.7270257 23.6950549 92.8571429 23.5576923"></polygon>
                <polygon id="Fill-10" points="77.4597247 16.0717033 77.1978022 16.3458791 99.1886269 16.3458791 99.4505495 16.0717033"></polygon>
                <polygon id="Fill-11" points="86.9332828 5.28846154 86.5384615 5.70054945 108.670516 5.70054945 109.065934 5.28846154"></polygon>
                <polygon id="Fill-12" points="74.5806631 19.4370879 74.4505495 19.5739011 96.2984578 19.5739011 96.4285714 19.4370879"></polygon>
                <polygon id="Fill-13" points="69.7802198 25.206044 69.9103334 25.3434066 91.7582418 25.3434066 91.6287168 25.206044"></polygon>
                <polygon id="Fill-14" points="83.2417582 40.8653846 83.3718719 41.0027473 105.21978 41.0027473 105.090255 40.8653846"></polygon>
                <polygon id="Fill-15" points="85.2949488 7.07417582 85.1648352 7.21153846 107.012743 7.21153846 107.142857 7.07417582"></polygon>
                <polygon id="Fill-16" points="83.7912088 41.1401099 83.9213224 41.2774725 105.769231 41.2774725 105.639706 41.1401099"></polygon>
                <polygon id="Fill-17" points="81.8681319 38.9423077 81.998242 39.0796703 103.846154 39.0796703 103.716044 38.9423077"></polygon>
                <polygon id="Fill-18" points="81.3186813 38.6675824 81.448795 38.8049451 103.296703 38.8049451 103.16659 38.6675824"></polygon>
                <polygon id="Fill-19" points="82.1428571 39.4917582 82.2729708 39.6291209 104.120879 39.6291209 103.990765 39.4917582"></polygon>
                <polygon id="Fill-20" points="87.4927475 4.87664835 87.3626374 5.01346154 109.210549 5.01346154 109.340659 4.87664835"></polygon>
                <polygon id="Fill-21" points="87.7668875 4.60164835 87.6373626 4.73901099 109.484682 4.73901099 109.615385 4.60164835"></polygon>
                <polygon id="Fill-22" points="82.6923077 39.8351648 83.2164644 40.3846154 105.21978 40.3846154 104.696216 39.8351648"></polygon>
                <polygon id="Fill-23" points="79.6703297 36.7445055 79.8004433 36.8818681 101.648352 36.8818681 101.518238 36.7445055"></polygon>
                <polygon id="Fill-24" points="68.5333327 1.57994505 68.4065934 1.71675824 112.232345 1.71675824 112.362637 1.57994505"></polygon>
                <polygon id="Fill-25" points="68.1099641 2.06043956 67.8571429 2.33516484 111.552686 2.33516484 111.813187 2.06043956"></polygon>
                <polygon id="Fill-26" points="78.7015387 14.7664835 78.5714286 14.9038462 100.418752 14.9038462 100.549451 14.7664835"></polygon>
                <polygon id="Fill-27" points="89.4158245 2.67857143 89.2857143 2.81593407 111.133037 2.81593407 111.263736 2.67857143"></polygon>
                <polygon id="Fill-28" points="73.481762 20.8104396 73.3516484 20.9478022 95.1995567 20.9478022 95.3296703 20.8104396"></polygon>
                <polygon id="Fill-29" points="79.1080764 14.1486264 78.8461538 14.4228022 100.836979 14.4228022 101.098901 14.1486264"></polygon>
                <polygon id="Fill-30" points="70.3296703 26.2365385 70.5915998 26.5107143 92.5824176 26.5107143 92.3204881 26.2365385"></polygon>
                <polygon id="Fill-31" points="68.4065934 48.8324176 68.5326488 48.9697802 112.362637 48.9697802 112.231848 48.8324176"></polygon>
                <polygon id="Fill-32" points="84.6025819 8.10467033 84.3406593 8.37884615 106.331484 8.37884615 106.593407 8.10467033"></polygon>
                <polygon id="Fill-33" points="70.8791209 26.8543956 71.0092345 26.9917582 92.8571429 26.9917582 92.7276179 26.8543956"></polygon>
                <polygon id="Fill-34" points="84.1960442 8.72252747 84.0659341 8.85989011 105.913846 8.85989011 106.043956 8.72252747"></polygon>
                <polygon id="Fill-35" points="75.2747253 31.525 75.4048389 31.6618132 97.2527473 31.6618132 97.1232223 31.525"></polygon>
                <polygon id="Fill-36" points="72.8021978 28.7774725 72.9317227 28.9148352 94.7802198 28.9148352 94.6506949 28.7774725"></polygon>
                <polygon id="Fill-37" points="85.1648352 42.7884615 85.2949488 42.9258242 107.142857 42.9258242 107.013332 42.7884615"></polygon>
                <polygon id="Fill-38" points="80.4811171 12.8266484 80.2197802 12.9975275 102.210598 12.9975275 102.472527 12.8266484"></polygon>
                <polygon id="Fill-39" points="76.5037365 17.239011 76.3736264 17.3763736 98.2209494 17.3763736 98.3516484 17.239011"></polygon>
                <polygon id="Fill-40" points="75.1301137 18.6126374 75 18.75 96.8479083 18.75 96.978022 18.6126374"></polygon>
                <polygon id="Fill-41" points="74.8553884 19.1620879 74.7252747 19.2994505 96.573183 19.2994505 96.7032967 19.1620879"></polygon>
                <polygon id="Fill-42" points="77.0526018 16.6895604 76.9230769 16.8269231 98.7703965 16.8269231 98.9010989 16.6895604"></polygon>
                <polygon id="Fill-43" points="73.8882961 19.9178571 73.6263736 20.192033 95.6171984 20.192033 95.8791209 19.9178571"></polygon>
                <polygon id="Fill-44" points="70.0415567 24.5879121 69.7802198 24.8626374 91.7716301 24.8626374 92.032967 24.5879121"></polygon>
                <polygon id="Fill-45" points="80.0751686 13.1181319 79.9450549 13.2554945 101.792963 13.2554945 101.923077 13.1181319"></polygon>
                <polygon id="Fill-46" points="78.426817 15.0412088 78.2967033 15.1785714 100.144612 15.1785714 100.274725 15.0412088"></polygon>
                <polygon id="Fill-47" points="75.6695465 17.9258242 75.2747253 18.3379121 97.4067802 18.3379121 97.8021978 17.9258242"></polygon>
                <polygon id="Fill-48" points="76.2290113 17.514011 76.0989011 17.6508242 97.9462242 17.6508242 98.0769231 17.514011"></polygon>
                <polygon id="Fill-49" points="79.8004398 13.6675824 79.6703297 13.8049451 101.518241 13.8049451 101.648352 13.6675824"></polygon>
                <polygon id="Fill-50" points="74.7252747 31.1813187 74.9871972 31.456044 96.978022 31.456044 96.7160995 31.1813187"></polygon>
                <polygon id="Fill-51" points="69.2307692 49.6565934 69.3573448 49.793956 113.186813 49.793956 113.055506 49.6565934"></polygon>
                <polygon id="Fill-52" points="68.956044 49.1071429 69.0826553 49.2445055 112.912088 49.2445055 112.781927 49.1071429"></polygon>
                <polygon id="Fill-53" points="69.0827133 0.755494505 68.956044 0.892857143 112.780683 0.892857143 112.912088 0.755494505"></polygon>
                <polygon id="Fill-54" points="86.2637363 44.0936813 86.5256658 44.3678571 108.516484 44.3678571 108.255147 44.0936813"></polygon>
                <polygon id="Fill-55" points="85.4395604 43.0631868 85.5696741 43.2005495 107.417582 43.2005495 107.288058 43.0631868"></polygon>
                <polygon id="Fill-56" points="68.8074318 1.03021978 68.6813187 1.16758242 112.506513 1.16758242 112.637363 1.03021978"></polygon>
                <polygon id="Fill-57" points="85.989011 43.6129121 86.1191246 43.7497253 107.967033 43.7497253 107.837508 43.6129121"></polygon>
                <polygon id="Fill-58" points="85.0202235 7.6239011 84.8901099 7.76071429 106.738018 7.76071429 106.868132 7.6239011"></polygon>
                <polygon id="Fill-59" points="82.5471073 10.6456044 82.4175824 10.782967 104.265491 10.782967 104.395604 10.6456044"></polygon>
                <polygon id="Fill-60" points="88.1734248 3.98351648 87.9120879 4.25824176 109.903498 4.25824176 110.164835 3.98351648"></polygon>
                <polygon id="Fill-61" points="89.1410992 2.9532967 89.010989 3.09065934 110.858901 3.09065934 110.989011 2.9532967"></polygon>
                <polygon id="Fill-62" points="81.9982455 11.1950549 81.8681319 11.3324176 103.71604 11.3324176 103.846154 11.1950549"></polygon>
                <polygon id="Fill-63" points="88.5916486 3.50274725 88.4615385 3.64010989 110.30945 3.64010989 110.43956 3.50274725"></polygon>
                <polygon id="Fill-64" points="83.3718719 9.54697802 83.2417582 9.68379121 105.089667 9.68379121 105.21978 9.54697802"></polygon>
                <polygon id="Fill-65" points="82.9542302 10.0274725 82.6923077 10.3021978 104.683132 10.3021978 104.945055 10.0274725"></polygon>
                <polygon id="Fill-66" points="71.4285714 27.1291209 71.5586851 27.2664835 93.4065934 27.2664835 93.2770685 27.1291209"></polygon>
                <polygon id="Fill-67" points="71.7032967 27.6788462 71.8334104 27.8156593 93.6813187 27.8156593 93.5517938 27.6788462"></polygon>
                <polygon id="Fill-68" points="69.6316093 0.206318681 69.5054945 0.343131868 113.355555 0.343131868 113.457986 0.23543956 113.420684 0.23543956 113.461538 0.206318681"></polygon>
                <polygon id="Fill-69" points="83.6465972 8.99725275 83.5164835 9.13461538 105.364392 9.13461538 105.494505 8.99725275"></polygon>
                <polygon id="Fill-70" points="72.2527473 28.1596154 72.5146767 28.4337912 94.5054945 28.4337912 94.243565 28.1596154"></polygon>
                <polygon id="Fill-71" points="75.5494505 32.0741758 75.6795642 32.2115385 97.5274725 32.2115385 97.3979476 32.0741758"></polygon>
                <polygon id="Fill-72" points="73.6263736 29.8076923 73.8883031 30.0824176 95.8791209 30.0824176 95.6171914 29.8076923"></polygon>
                <polygon id="Fill-73" points="76.0989011 32.3489011 76.2290148 32.4862637 98.0769231 32.4862637 97.9473982 32.3489011"></polygon>
                <polygon id="Fill-74" points="79.1208791 36.1266484 79.3828016 36.4008242 101.373626 36.4008242 101.111704 36.1266484"></polygon>
                <polygon id="Fill-75" points="73.3516484 29.6019231 73.481762 29.7387363 95.3296703 29.7387363 95.2001454 29.6019231"></polygon>
                <polygon id="Fill-76" points="73.0769231 29.0521978 73.2070367 29.1895604 95.0549451 29.1895604 94.9254201 29.0521978"></polygon>
                <polygon id="Fill-77" points="88.4615385 46.6346154 88.5910668 46.771978 110.43956 46.771978 110.310032 46.6346154"></polygon>
                <polygon id="Fill-78" points="68.1318681 48.2145604 68.3844993 48.4887363 112.087912 48.4887363 111.827608 48.2145604"></polygon>
                <polygon id="Fill-79" points="84.6153846 42.1706044 84.8773141 42.4447802 106.868132 42.4447802 106.606795 42.1706044"></polygon>
                <polygon id="Fill-80" points="89.010989 47.1153846 89.2723259 47.3901099 111.263736 47.3901099 111.001807 47.1153846"></polygon>
                <polygon id="Fill-81" points="77.1978022 33.7225275 77.3279193 33.8598901 99.1758242 33.8598901 99.0462958 33.7225275"></polygon>
                <polygon id="Fill-82" points="89.5604396 47.7335165 89.6905532 47.8708791 111.538462 47.8708791 111.408348 47.7335165"></polygon>
                <polygon id="Fill-83" points="78.8461538 35.6458791 78.9762675 35.7826923 100.824176 35.7826923 100.694062 35.6458791"></polygon>
                <polygon id="Fill-84" points="77.4725275 34.2035714 77.73445 34.4777473 99.7252747 34.4777473 99.4633522 34.2035714"></polygon>
                <polygon id="Fill-85" points="79.9450549 37.0192308 80.0751651 37.1565934 101.923077 37.1565934 101.792967 37.0192308"></polygon>
                <polygon id="Fill-86" points="78.021978 34.8214286 78.1520917 34.9587912 100 34.9587912 99.8698863 34.8214286"></polygon>
                <polygon id="Fill-87" points="78.5714286 35.0961538 78.7015387 35.2335165 100.549451 35.2335165 100.41934 35.0961538"></polygon>
                <polygon id="Fill-88" points="87.9120879 45.9478022 88.3069091 46.3598901 110.43956 46.3598901 110.044739 45.9478022"></polygon>
                <polygon id="Fill-89" points="72.2399445 21.8406593 71.978022 22.1153846 93.9688467 22.1153846 94.2307692 21.8406593"></polygon>
                <polygon id="Fill-90" points="70.0549451 25.7554945 70.1850587 25.8928571 92.032967 25.8928571 91.9034421 25.7554945"></polygon>
                <polygon id="Fill-91" points="76.3736264 33.0357143 76.7684476 33.4478022 98.9010989 33.4478022 98.5062777 33.0357143"></polygon>
                <polygon id="Fill-92" points="74.4505495 30.4258242 74.5800744 30.5631868 96.4285714 30.5631868 96.2990465 30.4258242"></polygon>
                <polygon id="Fill-93" points="72.6575862 21.6348901 72.5274725 21.7717033 94.3753808 21.7717033 94.5054945 21.6348901"></polygon>
                <polygon id="Fill-94" points="73.206448 21.0851648 73.0769231 21.2225275 94.9248314 21.2225275 95.0549451 21.0851648"></polygon>
                <polygon id="Fill-95" points="80.7692308 38.0494505 81.0311533 38.3241758 103.021978 38.3241758 102.760056 38.0494505"></polygon>
                <polygon id="Fill-96" points="87.0879121 44.9862637 87.2180292 45.1236264 109.065934 45.1236264 108.936406 44.9862637"></polygon>
                <polygon id="Fill-97" points="86.8131868 44.7115385 86.9433005 44.8489011 108.791209 44.8489011 108.661684 44.7115385"></polygon>
                <polygon id="Fill-98" points="84.0659341 41.6895604 84.1960477 41.8269231 106.043956 41.8269231 105.914431 41.6895604"></polygon>
                <polygon id="Fill-99" points="87.6373626 45.535989 87.7674763 45.6728022 109.615385 45.6728022 109.48586 45.535989"></polygon>
                <polygon id="Fill-100" points="80.4945055 37.568956 80.6246192 37.7057692 102.472527 37.7057692 102.342414 37.568956"></polygon>
                <polygon id="Fill-101" points="6.86813187 16.4156593 7.02527106 16.553022 13.029674 16.5513736 13.1868132 16.414011"></polygon>
                <polygon id="Fill-102" points="7.41758242 16.9656593 7.5701768 17.1024725 12.4841836 17.1013736 12.6373626 16.9634615"></polygon>
                <polygon id="Fill-103" points="7.69230769 17.5142857 7.84818442 17.6516484 11.9320354 17.6505495 12.0879121 17.5131868"></polygon>
                <polygon id="Fill-104" points="5.49450549 15.0423077 5.65018737 15.1796703 14.4041612 15.178022 14.5604396 15.0401099"></polygon>
                <polygon id="Fill-105" points="6.04395604 15.592033 6.19650506 15.7293956 13.85844 15.7271978 14.010989 15.5892857"></polygon>
                <polygon id="Fill-106" points="6.31868132 16.1409341 6.47321429 16.2782967 13.3070055 16.2766484 13.4615385 16.1392857"></polygon>
                <polygon id="Fill-107" points="0 9.79093407 0.23002471 9.99423077 19.8249203 9.98928571 20.0549451 9.78598901"></polygon>
                <polygon id="Fill-108" points="8.79120879 18.3381868 8.94615919 18.4755495 10.8340606 18.475 10.989011 18.3376374"></polygon>
                <polygon id="Fill-109" points="9.73461538 19.4368132 9.87857143 19.5741758 9.9021978 19.5741758 10.0456044 19.4368132"></polygon>
                <polygon id="Fill-110" points="9.34065934 18.8879121 9.47506102 19.0247253 10.3051588 19.0247253 10.4395604 18.8873626"></polygon>
                <polygon id="Fill-111" points="8.24175824 17.9953297 8.56424739 18.2695055 11.4913143 18.2695055 11.8131868 17.9942308"></polygon>
                <polygon id="Fill-112" points="1.37362637 11.196978 1.52806271 11.3343407 18.2521571 11.3299451 18.4065934 11.1931319"></polygon>
                <polygon id="Fill-113" points="2.47252747 12.2958791 2.62661765 12.4332418 17.1536021 12.4293956 17.3076923 12.292033"></polygon>
                <polygon id="Fill-114" points="1.92307692 11.6782967 2.23450961 11.9524725 17.8204354 11.9486264 18.1318681 11.6739011"></polygon>
                <polygon id="Fill-115" points="4.94505495 14.7678571 5.09901646 14.9052198 14.6812033 14.9024725 14.8351648 14.7651099"></polygon>
                <polygon id="Fill-116" points="0.824175824 10.9228022 0.980083368 11.0601648 18.8001364 11.0552198 18.956044 10.9178571"></polygon>
                <polygon id="Fill-117" points="0.549450549 10.3733516 0.704438566 10.5107143 19.3505065 10.5057692 19.5054945 10.3684066"></polygon>
                <polygon id="Fill-118" points="3.84615385 13.6008242 4.15508359 13.875 15.6251362 13.8722527 15.9340659 13.5975275"></polygon>
                <polygon id="Fill-119" points="3.02197802 12.8453297 3.17778122 12.9826923 16.8771638 12.9788462 17.032967 12.8414835"></polygon>
                <polygon id="Fill-120" points="4.67032967 14.2184066 4.82343263 14.3557692 15.2320968 14.353022 15.3846154 14.2156593"></polygon>
                <polygon id="Fill-121" points="3.57142857 13.1195055 3.72524874 13.2568681 16.3302834 13.2541209 16.4835165 13.1167582"></polygon>
                <polygon id="Fill-122" points="3.17869916 37.293956 3.02197802 37.4313187 17.032967 37.4313187 16.8762459 37.293956"></polygon>
                <polygon id="Fill-123" points="4.0022653 36.4697802 3.84615385 36.6071429 15.9340659 36.6071429 15.7779545 36.4697802"></polygon>
                <polygon id="Fill-124" points="4.70263216 35.8516484 4.3956044 36.1263736 15.3846154 36.1263736 15.0775876 35.8516484"></polygon>
                <polygon id="Fill-125" points="2.78228259 37.7747253 2.47252747 38.0494505 17.5824176 38.0494505 17.2732547 37.7747253"></polygon>
                <polygon id="Fill-126" points="1.25314767 39.217033 1.0989011 39.3543956 18.956044 39.3543956 18.8012064 39.217033"></polygon>
                <polygon id="Fill-127" points="0.586051106 39.6978022 0.274725275 39.9725275 19.5054945 39.9725275 19.1947639 39.6978022"></polygon>
                <polygon id="Fill-128" points="2.07665119 38.3928571 1.92307692 38.5302198 17.8571429 38.5302198 17.7035686 38.3928571"></polygon>
                <polygon id="Fill-129" points="0.115900489 40.3332418 0 40.435989 20.0549451 40.435989 19.9384502 40.3332418"></polygon>
                <polygon id="Fill-130" points="1.52880664 38.6678571 1.37362637 38.8046703 18.4065934 38.8046703 18.2514131 38.6678571"></polygon>
                <polygon id="Fill-131" points="5.10029422 35.3708791 4.94505495 35.5082418 14.8351648 35.5082418 14.6793308 35.3708791"></polygon>
                <polygon id="Fill-132" points="3.72563627 37.0195055 3.57142857 37.1563187 16.4835165 37.1563187 16.3293088 37.0195055"></polygon>
                <polygon id="Fill-133" points="7.85118496 32.6236264 7.69230769 32.760989 12.0879121 32.760989 11.9290348 32.6236264"></polygon>
                <polygon id="Fill-134" points="8.39396761 32.3489011 8.24175824 32.4862637 11.5384615 32.4862637 11.3862522 32.3489011"></polygon>
                <polygon id="Fill-135" points="9.10715967 31.7307692 8.79120879 32.0054945 11.2637363 32.0054945 10.9477854 31.7307692"></polygon>
                <polygon id="Fill-136" points="9.48442535 31.25 9.34065934 31.3873626 10.4395604 31.3873626 10.2952436 31.25"></polygon>
                <polygon id="Fill-137" points="9.77252747 31.1 10.0076923 31.1 9.88956044 30.9879121"></polygon>
                <polygon id="Fill-138" points="6.47502866 33.9972527 6.31868132 34.1346154 13.4615385 34.1346154 13.3051911 33.9972527"></polygon>
                <polygon id="Fill-139" points="5.6468631 35.0961538 5.49450549 35.2335165 14.2857143 35.2335165 14.1333567 35.0961538"></polygon>
                <polygon id="Fill-140" points="7.57260775 33.1730769 7.41758242 33.3104396 12.6373626 33.3104396 12.4823373 33.1730769"></polygon>
                <polygon id="Fill-141" points="6.19807668 34.5467033 6.04395604 34.6840659 14.010989 34.6840659 13.8568684 34.5467033"></polygon>
                <polygon id="Fill-142" points="7.02045637 33.7225275 6.86813187 33.8598901 12.9120879 33.8598901 12.7597634 33.7225275"></polygon>
                <polygon id="Fill-143" points="35.2849416 11.8818681 34.8901099 12.293956 57.0221543 12.293956 57.4175824 11.8818681"></polygon>
                <polygon id="Fill-144" points="35.8443959 11.4697802 35.7142857 11.6071429 57.5621975 11.6071429 57.6923077 11.4697802"></polygon>
                <polygon id="Fill-145" points="32.2729673 15.5909341 32.1428571 15.7277473 53.9901802 15.7277473 54.1208791 15.5909341"></polygon>
                <polygon id="Fill-146" points="40.3718196 6.18159341 40.1098901 6.45576923 62.1007079 6.45576923 62.3626374 6.18159341"></polygon>
                <polygon id="Fill-147" points="39.965275 6.79945055 39.8351648 6.93681319 61.6830766 6.93681319 61.8131868 6.79945055"></polygon>
                <polygon id="Fill-148" points="25.9542895 22.4587912 25.8241758 22.5961538 47.6720841 22.5961538 47.8021978 22.4587912"></polygon>
                <polygon id="Fill-149" points="25.6795642 23.0082418 25.5494505 23.1456044 47.3973589 23.1456044 47.5274725 23.0082418"></polygon>
                <polygon id="Fill-150" points="24.5706454 23.9697802 24.1758242 24.3818681 46.3072827 24.3818681 46.7032967 23.9697802"></polygon>
                <polygon id="Fill-151" points="25.1301137 23.5576923 25 23.6950549 46.8479083 23.6950549 46.978022 23.5576923"></polygon>
                <polygon id="Fill-152" points="31.5806038 16.0717033 31.3186813 16.3458791 53.3095061 16.3458791 53.5714286 16.0717033"></polygon>
                <polygon id="Fill-153" points="41.0541619 5.28846154 40.6593407 5.70054945 62.7913956 5.70054945 63.1868132 5.28846154"></polygon>
                <polygon id="Fill-154" points="28.7015422 19.4370879 28.5714286 19.5739011 50.4193369 19.5739011 50.5494505 19.4370879"></polygon>
                <polygon id="Fill-155" points="23.9010989 25.206044 24.0312126 25.3434066 45.8791209 25.3434066 45.7490072 25.206044"></polygon>
                <polygon id="Fill-156" points="37.6373626 40.8653846 37.7674763 41.0027473 59.6153846 41.0027473 59.4858597 40.8653846"></polygon>
                <polygon id="Fill-157" points="39.4158279 7.07417582 39.2857143 7.21153846 61.1336226 7.21153846 61.2637363 7.07417582"></polygon>
                <polygon id="Fill-158" points="37.9120879 41.1401099 38.0422016 41.2774725 59.8901099 41.2774725 59.760585 41.1401099"></polygon>
                <polygon id="Fill-159" points="35.989011 38.9423077 36.1191212 39.0796703 57.967033 39.0796703 57.8369228 38.9423077"></polygon>
                <polygon id="Fill-160" points="35.7142857 38.6675824 35.8443994 38.8049451 57.6923077 38.8049451 57.562194 38.6675824"></polygon>
                <polygon id="Fill-161" points="36.2637363 39.4917582 36.3938534 39.6291209 58.2417582 39.6291209 58.1122299 39.4917582"></polygon>
                <polygon id="Fill-162" points="41.6136267 4.87664835 41.4835165 5.01346154 63.3314283 5.01346154 63.4615385 4.87664835"></polygon>
                <polygon id="Fill-163" points="41.8883519 4.60164835 41.7582418 4.73901099 63.6055648 4.73901099 63.7362637 4.60164835"></polygon>
                <polygon id="Fill-164" points="36.5384615 39.8351648 37.0626182 40.3846154 59.0659341 40.3846154 58.5423703 39.8351648"></polygon>
                <polygon id="Fill-165" points="33.7912088 36.7445055 33.9213224 36.8818681 55.7692308 36.8818681 55.6391171 36.7445055"></polygon>
                <polygon id="Fill-166" points="22.6542119 1.57994505 22.5274725 1.71675824 66.3526315 1.71675824 66.4835165 1.57994505"></polygon>
                <polygon id="Fill-167" points="22.2308398 2.06043956 21.978022 2.33516484 65.673569 2.33516484 65.9340659 2.06043956"></polygon>
                <polygon id="Fill-168" points="32.8224179 14.7664835 32.6923077 14.9038462 54.5396308 14.9038462 54.6703297 14.7664835"></polygon>
                <polygon id="Fill-169" points="43.5367036 2.67857143 43.4065934 2.81593407 65.2539165 2.81593407 65.3846154 2.67857143"></polygon>
                <polygon id="Fill-170" points="27.6026411 20.8104396 27.4725275 20.9478022 49.3204358 20.9478022 49.4505495 20.8104396"></polygon>
                <polygon id="Fill-171" points="33.2289555 14.1486264 32.967033 14.4228022 54.9578577 14.4228022 55.2197802 14.1486264"></polygon>
                <polygon id="Fill-172" points="24.4505495 26.2365385 24.7124789 26.5107143 46.7032967 26.5107143 46.4413672 26.2365385"></polygon>
                <polygon id="Fill-173" points="22.8021978 48.8324176 22.9288433 48.9697802 66.7582418 48.9697802 66.6274537 48.8324176"></polygon>
                <polygon id="Fill-174" points="38.723468 8.10467033 38.4615385 8.37884615 60.4523562 8.37884615 60.7142857 8.10467033"></polygon>
                <polygon id="Fill-175" points="25 26.8543956 25.1301137 26.9917582 46.978022 26.9917582 46.8484971 26.8543956"></polygon>
                <polygon id="Fill-176" points="38.3169234 8.72252747 38.1868132 8.85989011 60.034725 8.85989011 60.1648352 8.72252747"></polygon>
                <polygon id="Fill-177" points="29.3956044 31.525 29.5257181 31.6618132 51.3736264 31.6618132 51.2441015 31.525"></polygon>
                <polygon id="Fill-178" points="26.9230769 28.7774725 27.0531906 28.9148352 48.9010989 28.9148352 48.771574 28.7774725"></polygon>
                <polygon id="Fill-179" points="39.2857143 42.7884615 39.4158279 42.9258242 61.2637363 42.9258242 61.1342114 42.7884615"></polygon>
                <polygon id="Fill-180" points="34.6019962 12.7747253 34.3406593 13.0494505 56.3314771 13.0494505 56.5934066 12.7747253"></polygon>
                <polygon id="Fill-181" points="30.8993409 17.239011 30.7692308 17.3763736 52.6165538 17.3763736 52.7472527 17.239011"></polygon>
                <polygon id="Fill-182" points="29.5257181 18.6126374 29.3956044 18.75 51.2435127 18.75 51.3736264 18.6126374"></polygon>
                <polygon id="Fill-183" points="28.976264 19.1620879 28.8461538 19.2994505 50.6940657 19.2994505 50.8241758 19.1620879"></polygon>
                <polygon id="Fill-184" points="31.1740662 16.6895604 31.043956 16.8269231 52.8912791 16.8269231 53.021978 16.6895604"></polygon>
                <polygon id="Fill-185" points="28.0091753 19.9178571 27.7472527 20.192033 49.7380775 20.192033 50 19.9178571"></polygon>
                <polygon id="Fill-186" points="24.1624358 24.5879121 23.9010989 24.8626374 45.8925093 24.8626374 46.1538462 24.5879121"></polygon>
                <polygon id="Fill-187" points="34.1960477 13.1181319 34.0659341 13.2554945 55.9138424 13.2554945 56.043956 13.1181319"></polygon>
                <polygon id="Fill-188" points="32.5476961 15.0412088 32.4175824 15.1785714 54.2654907 15.1785714 54.3956044 15.0412088"></polygon>
                <polygon id="Fill-189" points="29.7904256 17.9258242 29.3956044 18.3379121 51.5276593 18.3379121 51.9230769 17.9258242"></polygon>
                <polygon id="Fill-190" points="30.3498904 17.514011 30.2197802 17.6508242 52.0671033 17.6508242 52.1978022 17.514011"></polygon>
                <polygon id="Fill-191" points="33.921319 13.6675824 33.7912088 13.8049451 55.6385319 13.8049451 55.7692308 13.6675824"></polygon>
                <polygon id="Fill-192" points="28.8461538 31.1813187 29.1080833 31.456044 51.0989011 31.456044 50.8369716 31.1813187"></polygon>
                <polygon id="Fill-193" points="23.3516484 49.6565934 23.4782257 49.793956 67.3076923 49.793956 67.1769746 49.6565934"></polygon>
                <polygon id="Fill-194" points="23.0769231 49.1071429 23.2029428 49.2445055 67.032967 49.2445055 66.9022141 49.1071429"></polygon>
                <polygon id="Fill-195" points="23.4783177 0.755494505 23.3516484 0.892857143 67.1762876 0.892857143 67.3076923 0.755494505"></polygon>
                <polygon id="Fill-196" points="40.3846154 44.0936813 40.6465449 44.3678571 62.6373626 44.3678571 62.3760257 44.0936813"></polygon>
                <polygon id="Fill-197" points="39.5604396 43.0631868 39.6905532 43.2005495 61.5384615 43.2005495 61.4089366 43.0631868"></polygon>
                <polygon id="Fill-198" points="22.9283109 1.03021978 22.8021978 1.16758242 66.627392 1.16758242 66.7582418 1.03021978"></polygon>
                <polygon id="Fill-199" points="40.1098901 43.6129121 40.2400038 43.7497253 62.0879121 43.7497253 61.9583872 43.6129121"></polygon>
                <polygon id="Fill-200" points="39.1411027 7.6239011 39.010989 7.76071429 60.8588973 7.76071429 60.989011 7.6239011"></polygon>
                <polygon id="Fill-201" points="36.6685717 10.6456044 36.5384615 10.782967 58.3863733 10.782967 58.5164835 10.6456044"></polygon>
                <polygon id="Fill-202" points="42.2943039 3.98351648 42.032967 4.25824176 64.0243774 4.25824176 64.2857143 3.98351648"></polygon>
                <polygon id="Fill-203" points="43.2619783 2.9532967 43.1318681 3.09065934 64.9797799 3.09065934 65.1098901 2.9532967"></polygon>
                <polygon id="Fill-204" points="36.1191246 11.1950549 35.989011 11.3324176 57.8369193 11.3324176 57.967033 11.1950549"></polygon>
                <polygon id="Fill-205" points="42.7125278 3.50274725 42.5824176 3.64010989 64.4297407 3.64010989 64.5604396 3.50274725"></polygon>
                <polygon id="Fill-206" points="37.4927475 9.54697802 37.3626374 9.68379121 59.2105492 9.68379121 59.3406593 9.54697802"></polygon>
                <polygon id="Fill-207" points="37.0751163 10.0274725 36.8131868 10.3021978 58.8040046 10.3021978 59.0659341 10.0274725"></polygon>
                <polygon id="Fill-208" points="25.5494505 27.1291209 25.6795642 27.2664835 47.5274725 27.2664835 47.3973589 27.1291209"></polygon>
                <polygon id="Fill-209" points="25.8241758 27.6788462 25.9542895 27.8156593 47.8021978 27.8156593 47.6726729 27.6788462"></polygon>
                <polygon id="Fill-210" points="23.7524884 0.206318681 23.6263736 0.343131868 67.4764338 0.343131868 67.5788651 0.23543956 67.5415635 0.23543956 67.5824176 0.206318681"></polygon>
                <polygon id="Fill-211" points="37.7674763 8.99725275 37.6373626 9.13461538 59.485271 9.13461538 59.6153846 8.99725275"></polygon>
                <polygon id="Fill-212" points="26.0989011 28.1596154 26.3608306 28.4337912 48.3516484 28.4337912 48.0897189 28.1596154"></polygon>
                <polygon id="Fill-213" points="29.6703297 32.0741758 29.8004433 32.2115385 51.6483516 32.2115385 51.5188267 32.0741758"></polygon>
                <polygon id="Fill-214" points="28.021978 29.8076923 28.2839075 30.0824176 50.2747253 30.0824176 50.0127958 29.8076923"></polygon>
                <polygon id="Fill-215" points="30.2197802 32.3489011 30.3498939 32.4862637 52.1978022 32.4862637 52.0682773 32.3489011"></polygon>
                <polygon id="Fill-216" points="33.2417582 36.1266484 33.5036808 36.4008242 55.4945055 36.4008242 55.232583 36.1266484"></polygon>
                <polygon id="Fill-217" points="27.7472527 29.6019231 27.8773664 29.7387363 49.7252747 29.7387363 49.5957498 29.6019231"></polygon>
                <polygon id="Fill-218" points="27.1978022 29.0521978 27.3279159 29.1895604 49.1758242 29.1895604 49.0457105 29.0521978"></polygon>
                <polygon id="Fill-219" points="42.8571429 46.6346154 42.9872565 46.771978 64.8351648 46.771978 64.7056399 46.6346154"></polygon>
                <polygon id="Fill-220" points="22.2527473 48.2145604 22.5053784 48.4887363 66.2087912 48.4887363 65.9478965 48.2145604"></polygon>
                <polygon id="Fill-221" points="38.4615385 42.1706044 38.723468 42.4447802 60.7142857 42.4447802 60.4529488 42.1706044"></polygon>
                <polygon id="Fill-222" points="43.1318681 47.1153846 43.393205 47.3901099 65.3846154 47.3901099 65.1226859 47.1153846"></polygon>
                <polygon id="Fill-223" points="31.3186813 33.7225275 31.4487985 33.8598901 53.2967033 33.8598901 53.1671749 33.7225275"></polygon>
                <polygon id="Fill-224" points="43.6813187 47.7335165 43.8114358 47.8708791 65.6593407 47.8708791 65.5298123 47.7335165"></polygon>
                <polygon id="Fill-225" points="32.967033 35.6458791 33.0971501 35.7826923 54.9450549 35.7826923 54.8155266 35.6458791"></polygon>
                <polygon id="Fill-226" points="31.5934066 34.2035714 31.8553291 34.4777473 53.8461538 34.4777473 53.5842313 34.2035714"></polygon>
                <polygon id="Fill-227" points="34.3406593 37.0192308 34.4707695 37.1565934 56.3186813 37.1565934 56.1885711 37.0192308"></polygon>
                <polygon id="Fill-228" points="32.1428571 34.8214286 32.2729708 34.9587912 54.1208791 34.9587912 53.9907655 34.8214286"></polygon>
                <polygon id="Fill-229" points="32.4175824 35.0961538 32.5476926 35.2335165 54.3956044 35.2335165 54.2654942 35.0961538"></polygon>
                <polygon id="Fill-230" points="42.032967 45.9478022 42.4277882 46.3598901 64.5604396 46.3598901 64.1650219 45.9478022"></polygon>
                <polygon id="Fill-231" points="26.3608236 21.8406593 26.0989011 22.1153846 48.0897258 22.1153846 48.3516484 21.8406593"></polygon>
                <polygon id="Fill-232" points="24.1758242 25.7554945 24.3053491 25.8928571 46.1538462 25.8928571 46.0243212 25.7554945"></polygon>
                <polygon id="Fill-233" points="30.4945055 33.0357143 30.8893267 33.4478022 53.021978 33.4478022 52.6265604 33.0357143"></polygon>
                <polygon id="Fill-234" points="28.5714286 30.4258242 28.7015422 30.5631868 50.5494505 30.5631868 50.4199256 30.4258242"></polygon>
                <polygon id="Fill-235" points="27.0531906 21.6348901 26.9230769 21.7717033 48.7709852 21.7717033 48.9010989 21.6348901"></polygon>
                <polygon id="Fill-236" points="27.3279124 21.0851648 27.1978022 21.2225275 49.045714 21.2225275 49.1758242 21.0851648"></polygon>
                <polygon id="Fill-237" points="34.8901099 38.0494505 35.1520324 38.3241758 57.1428571 38.3241758 56.8809346 38.0494505"></polygon>
                <polygon id="Fill-238" points="41.2087912 44.9862637 41.3389049 45.1236264 63.1868132 45.1236264 63.0572883 44.9862637"></polygon>
                <polygon id="Fill-239" points="40.9340659 44.7115385 41.0641796 44.8489011 62.9120879 44.8489011 62.782563 44.7115385"></polygon>
                <polygon id="Fill-240" points="38.1868132 41.6895604 38.3169268 41.8269231 60.1648352 41.8269231 60.0353103 41.6895604"></polygon>
                <polygon id="Fill-241" points="41.7582418 45.535989 41.8883554 45.6728022 63.7362637 45.6728022 63.6067388 45.535989"></polygon>
                <polygon id="Fill-242" points="34.6153846 37.568956 34.7455018 37.7057692 56.5934066 37.7057692 56.4638782 37.568956"></polygon>
            </g>
        </g>
    </g>
</svg>